<svg width="40" height="40" viewBox="0 0 40 40" fill="none" xmlns="http://www.w3.org/2000/svg">
<path d="M20 1.75C18.1705 1.75 16.3821 2.2925 14.861 3.30891C13.3398 4.32531 12.1542 5.76996 11.4541 7.46018C10.754 9.15039 10.5708 11.0103 10.9277 12.8046C11.2847 14.5989 12.1656 16.2471 13.4593 17.5407C14.7529 18.8344 16.4011 19.7153 18.1954 20.0723C19.9897 20.4292 21.8496 20.246 23.5398 19.5459C25.23 18.8458 26.6747 17.6602 27.6911 16.139C28.7075 14.6179 29.25 12.8295 29.25 11C29.25 8.54675 28.2754 6.19397 26.5407 4.45926C24.806 2.72455 22.4533 1.75 20 1.75ZM20 17.1786C18.778 17.1786 17.5834 16.8162 16.5674 16.1373C15.5513 15.4584 14.7594 14.4934 14.2917 13.3644C13.8241 12.2354 13.7017 10.9931 13.9402 9.79462C14.1786 8.59609 14.767 7.49518 15.6311 6.63109C16.4952 5.767 17.5961 5.17855 18.7946 4.94015C19.9931 4.70175 21.2355 4.8241 22.3644 5.29174C23.4934 5.75939 24.4584 6.55131 25.1373 7.56737C25.8162 8.58343 26.1786 9.77799 26.1786 11C26.1786 11.8114 26.0188 12.6148 25.7083 13.3644C25.3978 14.1141 24.9426 14.7952 24.3689 15.3689C23.7952 15.9426 23.1141 16.3978 22.3644 16.7083C21.6148 17.0188 20.8114 17.1786 20 17.1786Z" stroke-width="0.5"/>
<path d="M13.3529 22.75L13.3526 22.75C10.2787 22.7534 7.33032 23.942 5.15466 26.0572C2.97877 28.1727 1.75348 31.0424 1.75 34.0372V34.0375C1.75 35.157 2.20751 36.2292 3.01948 37.0187C3.83121 37.8078 4.9307 38.25 6.07571 38.25H33.9243C35.0693 38.25 36.1688 37.8078 36.9805 37.0187C37.7925 36.2292 38.25 35.157 38.25 34.0375V34.0372C38.2465 31.0424 37.0212 28.1727 34.8453 26.0572C32.6697 23.942 29.7213 22.7534 26.6474 22.75L26.6471 23V22.75L13.3529 22.75ZM33.9243 35.25H6.07571C5.74082 35.25 5.42101 35.1206 5.18629 34.8924C4.95181 34.6644 4.82143 34.3568 4.82143 34.0375C4.82143 31.8418 5.71851 29.7346 7.31772 28.1798C8.91717 26.6248 11.0879 25.75 13.3529 25.75H26.6471C28.9121 25.75 31.0828 26.6248 32.6823 28.1798C34.2815 29.7346 35.1786 31.8418 35.1786 34.0375C35.1786 34.3568 35.0482 34.6644 34.8137 34.8924C34.579 35.1206 34.2592 35.25 33.9243 35.25Z" stroke-width="0.5"/>
</svg>
