<svg width="40" height="40" viewBox="0 0 40 40" fill="none" xmlns="http://www.w3.org/2000/svg">
<g clip-path="url(#clip0_16_51)">
<path d="M34.7823 17.597C35.5314 16.6731 35.9814 15.4972 35.9814 14.2178C35.9814 11.2538 33.57 8.84246 30.606 8.84246C27.6422 8.84246 25.2308 11.2538 25.2308 14.2178C25.2308 15.498 25.6814 16.6745 26.4313 17.5987C25.7213 17.8251 25.0472 18.1567 24.433 18.5822C23.4634 17.1705 21.8383 16.2425 20 16.2425C18.1617 16.2425 16.5367 17.1705 15.5669 18.5822C14.9528 18.1566 14.2787 17.8251 13.5687 17.5987C14.3186 16.6745 14.7692 15.498 14.7692 14.2178C14.7692 11.2538 12.3578 8.84246 9.39395 8.84246C6.43 8.84246 4.01863 11.2538 4.01863 14.2178C4.01863 15.4972 4.46867 16.673 5.21774 17.597C2.19523 18.5611 0 21.3957 0 24.7336V31.3875C0 32.036 0.525735 32.5617 1.17421 32.5617H10.6063V38.7874C10.6063 39.4359 11.132 39.9616 11.7805 39.9616H28.2195C28.868 39.9616 29.3937 39.4359 29.3937 38.7874V32.5617H38.8258C39.4743 32.5617 40 32.036 40 31.3875V24.7336C40 21.3957 37.8048 18.5611 34.7823 17.597V17.597ZM30.6061 11.1909C32.2752 11.1909 33.633 12.5488 33.633 14.2178C33.633 15.8857 32.2768 17.2429 30.6092 17.2445H30.6032C28.9355 17.2429 27.5794 15.8857 27.5794 14.2178C27.5793 12.5488 28.9371 11.1909 30.6061 11.1909ZM20 18.5909C21.6805 18.5909 23.0497 19.9694 23.0258 21.6624C23.0014 23.317 21.6484 24.6446 20 24.6446C18.3256 24.6446 16.9731 23.2787 16.9731 21.6178C16.9731 19.971 18.3109 18.5909 20 18.5909V18.5909ZM9.39395 11.1909C11.0629 11.1909 12.4208 12.5488 12.4208 14.2178C12.4208 15.8857 11.0645 17.2429 9.397 17.2445H9.39097C7.72328 17.2429 6.36714 15.8857 6.36714 14.2178C6.36706 12.5488 7.72492 11.1909 9.39395 11.1909V11.1909ZM2.34843 24.7336C2.34843 21.899 4.65451 19.5929 7.48914 19.5929H11.2991C12.5439 19.5929 13.7468 20.0492 14.6778 20.8603C14.4676 22.3434 14.8901 23.8466 15.8204 24.9972C13.3871 25.7728 11.506 27.7545 10.8556 30.2133H7.35763V25.8189C7.35763 25.1704 6.83189 24.6446 6.18341 24.6446C5.53493 24.6446 5.0092 25.1704 5.0092 25.8189V30.2133H2.34843V24.7336ZM27.0453 37.6132H24.6969V34.1428C24.6969 33.4943 24.1711 32.9686 23.5226 32.9686C22.8742 32.9686 22.3484 33.4943 22.3484 34.1428V37.6132H17.6516V34.1428C17.6516 33.4943 17.1258 32.9686 16.4774 32.9686C15.8289 32.9686 15.3031 33.4943 15.3031 34.1428V37.6132H12.9547V32.1335C12.9547 29.3103 15.2513 26.9931 18.0952 26.9931H21.9048C24.7448 26.9931 27.0453 29.3061 27.0453 32.1335V37.6132ZM37.6516 30.2133H34.9908V25.8189C34.9908 25.1704 34.4651 24.6446 33.8166 24.6446C33.1681 24.6446 32.6424 25.1704 32.6424 25.8189V30.2133H29.1444C28.4983 27.7707 26.6288 25.7778 24.1796 24.9972C25.0774 23.8868 25.5395 22.3939 25.3222 20.8603C26.2532 20.0492 27.4561 19.5929 28.7009 19.5929H32.5109C35.3455 19.5929 37.6516 21.899 37.6516 24.7336V30.2133Z"/>
<path d="M13.6588 5.98865C13.927 6.57889 14.6231 6.84019 15.2136 6.57169C15.804 6.30334 16.0651 5.60727 15.7966 5.01687L14.231 1.57251C13.9626 0.982118 13.2664 0.720973 12.6762 0.989477C12.0858 1.25782 11.8247 1.9539 12.0932 2.54429L13.6588 5.98865Z"/>
<path d="M24.7864 6.57169C25.3775 6.84027 26.0732 6.57842 26.3412 5.98865L27.9068 2.54429C28.1753 1.95389 27.9142 1.25774 27.3238 0.989474C26.7333 0.721048 26.0373 0.982115 25.769 1.57251L24.2034 5.01687C23.9349 5.60727 24.196 6.30334 24.7864 6.57169Z"/>
<path d="M20 5.81808C20.6485 5.81808 21.1742 5.29234 21.1742 4.64386V1.21257C21.1742 0.564095 20.6485 0.0383606 20 0.0383606C19.3515 0.0383606 18.8258 0.564095 18.8258 1.21257V4.64386C18.8258 5.29234 19.3515 5.81808 20 5.81808Z"/>
</g>
<defs>
<clipPath id="clip0_16_51">
<rect width="40" height="40"/>
</clipPath>
</defs>
</svg>
